<?xml version="1.0" standalone="no"?>
<!DOCTYPE svg PUBLIC "-//W3C//DTD SVG 20010904//EN"
 "http://www.w3.org/TR/2001/REC-SVG-20010904/DTD/svg10.dtd">
<svg version="1.0" xmlns="http://www.w3.org/2000/svg"
 width="640.000000pt" height="1280.000000pt" viewBox="0 0 640.000000 1280.000000"
 preserveAspectRatio="xMidYMid meet">
<metadata>
Created by potrace 1.15, written by Peter Selinger 2001-2017
</metadata>
<g transform="translate(0.000000,1280.000000) scale(0.100000,-0.100000)"
fill="#2c475c" stroke="none">
<path d="M4832 12783 c-20 -37 -74 -178 -88 -228 -35 -128 -49 -264 -69 -693
-16 -347 -28 -462 -56 -560 -36 -122 -36 -266 -1 -412 17 -71 0 -101 -222
-390 -76 -99 -140 -179 -142 -178 -1 2 -17 86 -34 188 -36 210 -73 332 -132
440 -106 194 -111 221 -49 280 22 21 79 62 128 91 162 97 224 141 239 170 13
27 13 33 -6 75 -27 63 -25 81 10 99 62 32 60 92 -3 139 -59 43 -128 22 -270
-85 -43 -33 -87 -59 -97 -59 -10 0 -35 9 -54 21 -23 13 -43 18 -57 14 -29 -9
-65 -93 -79 -185 -6 -41 -13 -82 -16 -90 -3 -8 -26 25 -56 78 -62 112 -115
172 -150 172 -31 0 -46 -17 -63 -72 -11 -36 -17 -43 -37 -41 -39 2 -256 96
-493 213 -382 188 -571 238 -740 195 -119 -30 -166 -63 -112 -79 12 -4 90 -11
172 -16 83 -5 173 -16 200 -24 58 -18 168 -84 160 -96 -11 -17 -116 -32 -295
-39 -207 -9 -237 -17 -305 -80 -28 -25 -64 -45 -111 -60 -102 -34 -352 -161
-396 -202 -82 -77 -24 -79 139 -5 129 60 201 83 227 73 15 -6 13 -13 -16 -57
-18 -27 -85 -118 -149 -202 -135 -179 -205 -290 -225 -354 -22 -75 -8 -83 62
-31 32 24 88 71 124 104 124 113 193 165 274 204 98 46 146 82 355 264 257
222 301 245 465 245 l91 -1 -96 -47 c-105 -52 -148 -83 -173 -124 -33 -54 -10
-96 37 -65 39 25 157 37 381 37 l216 0 0 -55 c0 -60 12 -95 39 -112 9 -6 56
-22 104 -37 98 -30 102 -36 62 -101 -33 -54 -31 -75 10 -108 40 -32 44 -59 20
-147 -21 -75 -31 -240 -17 -267 6 -11 23 -24 37 -27 41 -10 75 13 94 64 10 25
52 100 94 167 91 146 128 216 130 252 2 14 6 25 10 24 4 -2 11 -3 16 -3 29 0
154 -339 190 -517 46 -226 6 -555 -102 -838 -29 -76 -241 -531 -253 -544 -8
-9 -36 75 -65 197 -34 135 -38 205 -25 372 7 82 5 107 -14 180 -87 341 -256
679 -444 890 -150 169 -208 239 -263 319 -32 46 -68 91 -80 99 -20 13 -23 12
-30 -4 -9 -23 18 -151 62 -301 68 -230 115 -420 144 -588 36 -207 43 -238 76
-340 36 -110 96 -229 150 -298 47 -60 150 -142 198 -159 74 -26 155 -281 164
-513 4 -102 2 -125 -14 -155 -15 -30 -23 -35 -53 -35 l-35 0 -5 75 c-6 88 -12
100 -50 100 -20 0 -37 -10 -59 -35 -17 -20 -31 -37 -31 -39 0 -2 -16 -65 -35
-140 -19 -76 -64 -208 -100 -295 -64 -158 -98 -266 -109 -351 -19 -136 82
-331 209 -406 26 -15 74 -28 133 -37 51 -8 95 -17 99 -20 22 -23 -56 -36 -287
-46 -220 -11 -272 -18 -368 -51 -36 -13 -78 -20 -104 -18 -40 3 -43 5 -46 33
-4 39 48 118 88 135 18 8 47 10 73 6 140 -21 135 77 -12 220 l-76 75 -59 -68
c-71 -81 -145 -153 -157 -153 -17 0 -9 26 26 80 19 30 35 58 35 63 0 4 -11 19
-25 33 -19 18 -31 23 -48 19 -38 -12 -94 -75 -124 -139 -24 -53 -28 -74 -29
-156 l-1 -95 -112 4 c-132 4 -184 -8 -238 -54 -90 -77 -126 -194 -127 -415 -1
-188 -4 -180 166 -411 144 -196 152 -214 143 -336 -6 -77 -5 -97 9 -118 9 -14
23 -25 31 -25 9 0 49 31 90 70 87 80 146 105 227 94 64 -9 75 2 144 137 32 63
77 133 109 168 96 108 96 173 -1 383 -34 73 -54 130 -54 153 0 116 160 254
306 263 131 9 354 -95 354 -163 0 -13 -19 -47 -42 -76 -73 -88 -76 -93 -87
-134 -6 -22 -11 -68 -11 -102 0 -102 -19 -212 -56 -320 -24 -70 -34 -116 -32
-145 3 -39 7 -46 53 -75 71 -46 95 -77 95 -121 0 -20 14 -92 31 -160 30 -122
30 -126 19 -231 -24 -220 -120 -762 -200 -1136 -57 -261 -95 -460 -115 -590
-9 -60 -20 -123 -24 -140 l-8 -30 -17 38 c-38 85 -41 884 -6 1322 54 675 143
1338 226 1690 62 264 60 253 42 272 -15 14 -23 15 -58 4 -35 -10 -45 -20 -61
-55 -43 -98 -122 -509 -179 -931 -67 -494 -91 -763 -99 -1115 -4 -193 -9 -281
-15 -255 -4 22 -25 129 -47 237 -47 239 -93 385 -167 532 -48 95 -69 123 -142
196 -141 141 -275 189 -495 176 -93 -5 -237 -29 -309 -52 -18 -6 -19 -1 -12
157 13 308 74 1055 131 1594 13 127 30 286 37 355 8 80 13 256 12 490 -1 419
-4 441 -90 611 -148 297 -288 402 -534 401 -171 0 -348 -47 -686 -183 -146
-58 -323 -120 -489 -172 -46 -14 -58 -42 -23 -53 63 -20 215 2 428 61 232 64
417 80 572 51 389 -75 558 -335 558 -861 0 -270 -40 -516 -145 -905 -183 -670
-315 -1333 -315 -1582 0 -71 -17 -91 -92 -112 -29 -8 -129 -35 -221 -61 -206
-57 -304 -76 -349 -69 -58 10 -90 -43 -49 -80 54 -49 209 -44 397 14 118 37
203 51 241 41 32 -9 33 -19 15 -138 -34 -210 -40 -959 -12 -1373 33 -484 128
-1076 222 -1370 36 -114 58 -158 92 -187 21 -18 26 -32 26 -67 0 -55 34 -165
107 -345 84 -208 194 -428 368 -736 87 -154 171 -302 186 -330 15 -27 57 -130
94 -229 l67 -178 -77 -251 c-43 -138 -91 -303 -107 -366 -29 -116 -49 -291
-32 -291 5 1 41 46 79 102 39 56 87 127 109 157 52 77 114 210 171 371 61 173
68 186 112 207 48 22 229 203 315 313 36 47 94 130 128 185 89 143 125 191
199 268 148 154 313 233 801 387 233 73 473 133 630 157 158 25 732 25 855 1
176 -35 259 -91 377 -255 128 -177 191 -335 238 -591 32 -172 68 -274 101
-280 24 -4 29 73 29 437 0 391 -10 476 -72 601 -38 78 -56 100 -212 255 -195
195 -302 276 -481 364 -237 117 -370 146 -660 145 -409 -1 -712 -70 -1110
-254 -177 -82 -237 -100 -265 -82 -29 18 -42 15 -89 -20 -49 -36 -103 -112
-94 -134 3 -9 -49 -69 -140 -162 -164 -166 -184 -189 -292 -337 -42 -58 -79
-104 -82 -102 -6 7 81 178 139 271 132 213 387 522 789 958 520 563 1289 1600
1601 2159 123 219 321 648 463 999 199 495 240 694 239 1155 0 349 -34 645
-104 933 -80 326 -177 524 -410 832 -159 211 -260 383 -295 505 -22 75 -15
166 24 307 39 139 44 165 32 172 -17 11 -100 -97 -132 -172 -34 -84 -68 -226
-69 -290 0 -84 69 -242 207 -469 41 -68 92 -163 113 -211 84 -195 163 -487
181 -672 16 -163 6 -841 -16 -1025 -56 -490 -168 -839 -424 -1325 -298 -563
-550 -876 -1206 -1500 -143 -136 -352 -347 -464 -469 -112 -121 -208 -221
-212 -221 -5 0 -9 6 -9 13 0 103 463 2355 520 2533 13 38 63 67 146 84 97 19
134 45 171 120 75 148 79 253 18 440 -58 180 -57 260 2 331 28 33 81 63 131
74 24 5 41 1 66 -14 50 -31 51 -46 6 -81 -29 -23 -40 -39 -40 -59 0 -35 48
-81 122 -116 79 -37 132 -86 164 -152 24 -49 28 -67 27 -147 -1 -110 -24 -190
-118 -400 -69 -153 -100 -253 -90 -287 9 -28 39 -37 99 -28 61 10 86 -3 115
-59 42 -80 99 -114 197 -113 114 1 143 28 198 186 20 59 81 196 135 305 115
233 146 328 139 437 -7 99 -41 166 -134 258 -42 42 -74 82 -74 93 0 11 7 37
16 57 11 27 14 54 10 89 -4 28 -10 86 -14 129 -5 62 -11 82 -27 93 -33 24 -63
27 -106 10 l-42 -17 6 31 c9 43 -34 91 -83 93 -33 2 -37 -1 -62 -52 -32 -67
-53 -84 -93 -75 -41 9 -131 49 -139 62 -4 6 9 28 27 49 43 48 93 147 145 288
54 147 80 253 92 374 6 55 17 122 25 148 18 59 19 95 3 111 -15 15 -63 16 -90
1 -12 -6 -55 -13 -97 -15 -42 -2 -79 -3 -83 -3 -3 -1 -6 -61 -5 -133 2 -128 1
-135 -28 -198 -16 -36 -57 -101 -89 -145 -66 -89 -215 -245 -234 -245 -16 0
-15 36 4 101 40 136 98 242 203 371 39 48 71 92 71 98 0 15 -61 95 -117 153
-68 70 -111 74 -177 17 -18 -17 -38 -30 -44 -30 -6 0 -16 16 -22 35 -33 101
-96 120 -190 60 -30 -20 -66 -38 -80 -41 -58 -13 -89 -26 -105 -44 -71 -79
-33 92 92 410 130 332 295 637 466 858 61 80 97 156 97 207 0 37 35 70 128
122 102 56 203 151 251 235 17 31 45 97 62 145 114 337 280 1063 242 1063 -19
0 -73 -89 -171 -285 -55 -110 -109 -211 -121 -225 l-22 -25 5 130 c7 206 23
263 145 523 94 199 105 244 98 407 -8 191 -86 710 -115 761 -9 16 -10 15 -20
-3z m-1317 -4402 c-47 -241 -54 -319 -29 -359 22 -37 43 -48 61 -29 7 7 31 93
52 191 22 98 44 183 49 188 14 14 36 -31 51 -100 31 -145 -7 -431 -59 -445
-46 -12 -147 68 -184 148 -28 59 -18 259 21 415 16 68 63 184 70 176 2 -2 -12
-85 -32 -185z m835 -895 c0 -19 -66 -76 -89 -76 -17 0 -39 19 -55 47 -3 6 1
19 10 27 21 21 134 23 134 2z m-2422 -1680 c107 -54 238 -169 297 -261 135
-208 182 -390 215 -830 45 -603 128 -850 385 -1149 92 -109 130 -173 120 -206
-4 -11 -24 -40 -45 -65 -68 -79 -90 -169 -190 -805 -73 -457 -104 -631 -122
-663 -8 -16 -12 -17 -24 -5 -15 15 -34 162 -34 273 0 208 -103 557 -265 900
-150 319 -225 673 -320 1515 -37 326 -61 511 -106 813 -40 271 -50 428 -30
480 14 35 53 36 119 3z"/>
</g>
</svg>
